:SAMPLES-PER-SECOND 30
:FULLY-SPECIFIED
:DEGREES
562
root  86.4728 38.8823 -0.672079 -38.9827 -84.7538 37.805
RightUpLeg  -3.29935 -9.17417 -11.6323
RightLeg  15.0321 -4.26004 -1.57458
RightFoot  -8.43156 -0.181891 4.92297
RightToes  -4.65661e-009 0 -3.6325e-017
Spine  5.42032 0.573656 0.592419
Spine1  -0.85779 1.13858 -4.27579
HEad  -8.69623 -7.83232 -7.01335
LeftShoulder1  -0.386697 4.59827 -29.1733
LeftArm  -11.1687 13.6548 -32.3117
LeftForeArm  29.2561 -9.03929 -4.59811
LeftHand  -0.0476138 6.21925 -1.35152
RightShoulder  -0.721988 -5.63497 27.2248
RightArm  3.74341 -4.40944 31.0275
RightForeArm  14.7463 8.50597 2.62416
RightHand  0.0384178 4.74283 0.171945
LeftUpLeg  -1.39855 6.02191 -1.62332
LeftLeg  9.62697 -1.62397 -1.42946
LeftFoot  -6.95822 -0.0556257 2.54028
LeftToes  9.86798e-010 -1.28139e-010 1.4132e-011
563
root  86.5217 38.8972 -0.532972 -40.008 -85.0827 38.8353
RightUpLeg  -3.6542 -7.49722 -10.449
RightLeg  15.6652 -2.04212 -0.889812
RightFoot  -9.87951 -0.144584 5.98596
RightToes  -4.65661e-009 0 -3.6325e-017
Spine  6.47231 0.583042 0.202247
Spine1  -2.29894 1.03555 -4.07105
HEad  -8.6491 -7.44052 -7.44326
LeftShoulder1  -0.395528 4.62745 -29.0392
LeftArm  -10.7691 14.457 -29.5749
LeftForeArm  25.8539 -9.84138 -4.67787
LeftHand  0.0131258 9.50419 1.02385
RightShoulder  -0.705574 -5.6197 26.6779
RightArm  1.91823 -5.67008 28.4472
RightForeArm  13.0636 8.08247 1.76423
RightHand  0.0372396 3.13064 0.244356
LeftUpLeg  -1.34728 6.44437 -1.489
LeftLeg  9.44729 -1.84497 -1.88237
LeftFoot  -6.58525 -0.0936668 3.2126
LeftToes  9.86798e-010 -1.28139e-010 1.4132e-011
564
root  86.5624 38.9286 -0.410079 -36.1155 -84.7776 34.8997
RightUpLeg  -3.58451 -7.17585 -9.13676
RightLeg  16.1363 -1.22681 -0.619929
RightFoot  -11.047 -0.0917887 6.21104
RightToes  -4.65661e-009 0 -3.6325e-017
Spine  6.63485 0.259133 -0.0374238
Spine1  -2.45357 0.662284 -3.8283
HEad  -8.61154 -6.93978 -7.40405
LeftShoulder1  -0.354269 4.53326 -28.2153
LeftArm  -11.3039 14.6512 -28.228
LeftForeArm  23.82 -10.4147 -4.40457
LeftHand  0.192376 13.4551 3.81482
RightShoulder  -0.655068 -5.48182 26.4265
RightArm  1.12761 -6.35746 26.2572
RightForeArm  10.763 7.7344 1.37644
RightHand  -0.0710211 1.93285 -1.27744
LeftUpLeg  -1.24161 6.23431 -1.67853
LeftLeg  9.12468 -2.04769 -1.76985
LeftFoot  -6.33862 -0.1119 3.43554
LeftToes  9.86798e-010 -1.28139e-010 1.4132e-011
565
root  86.597 38.9463 -0.33212 -33.0748 -84.3739 31.794
RightUpLeg  -3.17964 -7.78249 -7.81112
RightLeg  16.0069 -0.651489 -0.430883
RightFoot  -11.5776 -0.0614777 5.30413
RightToes  -4.65661e-009 0 -3.6325e-017
Spine  7.48658 -0.0188875 -0.0334828
Spine1  -3.62054 0.382666 -3.92944
HEad  -8.38132 -7.09395 -7.4995
LeftShoulder1  -0.280098 4.33519 -27.5165
LeftArm  -11.582 14.9315 -26.6056
LeftForeArm  24.3766 -11.244 -4.08142
LeftHand  0.0778099 9.99486 3.22245
RightShoulder  -0.642322 -5.45164 26.2634
RightArm  1.12897 -7.45415 24.1471
RightForeArm  8.7726 7.73416 1.2396
RightHand  -0.0797273 2.01266 -1.45251
LeftUpLeg  -1.191 5.85876 -1.9721
LeftLeg  8.93839 -2.07116 -1.49444
LeftFoot  -6.11566 -0.122237 3.48651
LeftToes  9.86798e-010 -1.28139e-010 1.4132e-011
566
root  86.5908 38.9832 -0.315027 -33.775 -84.4493 32.6155
RightUpLeg  -3.00456 -7.99293 -6.40648
RightLeg  15.6149 -2.04859 -0.846811
RightFoot  -10.6133 -0.0864934 1.66334
RightToes  -4.65661e-009 0 -3.6325e-017
Spine  6.59385 0.0947965 -0.358174
Spine1  -2.75796 0.476505 -3.47007
HEad  -8.01237 -7.13579 -7.38768
LeftShoulder1  -0.273958 4.32332 -27.234
LeftArm  -12.3188 14.4998 -25.2824
LeftForeArm  23.3773 -12.245 -3.61279
LeftHand  0.0077304 8.0574 1.86736
RightShoulder  -0.571361 -5.26819 25.6323
RightArm  0.816781 -8.25808 23.2709
RightForeArm  7.13624 7.61777 1.0501
RightHand  -0.0715704 3.81816 -1.15329
LeftUpLeg  -1.02193 5.70463 -2.06034
LeftLeg  8.32941 -1.84342 -1.43158
LeftFoot  -5.85515 -0.1245 3.33594
LeftToes  9.86798e-010 -1.28139e-010 1.4132e-011
567
root  86.5897 39.0097 -0.315058 -35.5984 -84.2161 34.5009
RightUpLeg  -2.30255 -7.72395 -5.77731
RightLeg  14.1814 -6.06354 -1.99219
RightFoot  -10.5939 -0.0706898 0.0188505
RightToes  -4.65661e-009 0 -3.6325e-017
Spine  6.76044 -0.190268 -0.0360803
Spine1  -3.34617 0.337157 -4.25541
HEad  -7.58764 -6.9709 -7.47028
LeftShoulder1  -0.260399 4.29197 -26.8263
LeftArm  -12.5468 14.7992 -23.704
LeftForeArm  22.2295 -14.0679 -3.31378
LeftHand  -0.0391053 6.29224 -0.218624
RightShoulder  -0.552554 -5.21588 25.5041
RightArm  0.855814 -8.91456 22.9032
RightForeArm  6.25866 7.65646 1.01529
RightHand  -0.0878677 3.72656 -1.38025
LeftUpLeg  -0.752616 5.42596 -2.41244
LeftLeg  7.65234 -1.60622 -1.3789
LeftFoot  -5.48022 -0.137701 3.32247
LeftToes  9.86798e-010 -1.28139e-010 1.4132e-011
568
root  86.5895 39.0885 -0.300405 -37.077 -84.1605 35.8118
RightUpLeg  -1.63607 -7.84004 -5.90773
RightLeg  13.0225 -6.33251 -1.98078
RightFoot  -9.48673 -0.0599797 -0.290967
RightToes  -4.65661e-009 0 -3.6325e-017
Spine  7.16763 -0.441692 1.12251
Spine1  -3.92263 0.338405 -5.40453
HEad  -6.97604 -6.76854 -7.48974
LeftShoulder1  -0.234307 4.21667 -26.6637
LeftArm  -12.7447 14.914 -22.7299
LeftForeArm  21.1977 -16.1497 -3.24396
LeftHand  -0.0294722 6.65296 0.602176
RightShoulder  -0.565737 -5.26185 25.4218
RightArm  0.565651 -9.71038 23.2605
RightForeArm  6.85957 8.30733 0.899511
RightHand  -0.114293 3.38891 -1.75022
LeftUpLeg  0.19332 5.12554 -2.61523
LeftLeg  6.06218 -1.27231 -1.25951
LeftFoot  -4.64667 -0.182375 3.59964
LeftToes  9.86798e-010 -1.28139e-010 1.4132e-011
569
root  86.5807 39.0824 -0.29763 -42.2048 -84.6379 40.864
RightUpLeg  -1.29297 -9.1877 -6.51514
RightLeg  12.4337 -3.93468 -1.10532
RightFoot  -9.40747 -0.067877 0.230014
RightToes  -4.65661e-009 0 -3.6325e-017
Spine  6.66589 -0.253621 2.04879
Spine1  -3.22549 0.734473 -6.4718
HEad  -6.61111 -6.36477 -7.72991
LeftShoulder1  -0.285221 4.3725 -26.6045
LeftArm  -13.385 14.5815 -22.9107
LeftForeArm  20.874 -17.9044 -3.2178
LeftHand  -0.0217224 6.13779 1.26741
RightShoulder  -0.567013 -5.24233 25.849
RightArm  0.539528 -10.1961 23.2139
RightForeArm  6.45131 9.44175 0.956838
RightHand  -0.0690309 3.28107 -1.1637
LeftUpLeg  0.361611 4.9842 -2.83631
LeftLeg  6.02062 -0.405324 -1.00056
LeftFoot  -4.74653 -0.16361 3.33568
LeftToes  9.86798e-010 -1.28139e-010 1.4132e-011
570
root  86.5884 39.1134 -0.307466 -46.1268 -85.2465 44.7772
RightUpLeg  -1.16456 -10.423 -6.72645
RightLeg  11.983 -1.83734 -0.279696
RightFoot  -8.81159 -0.0695903 0.461029
RightToes  -4.65661e-009 0 -3.6325e-017
Spine  6.83047 -0.0927521 3.21871
Spine1  -3.53172 1.03316 -7.18928
HEad  -6.29151 -6.25117 -8.21666
LeftShoulder1  -0.336688 4.52167 -26.8706
LeftArm  -14.0257 14.4913 -23.4861
LeftForeArm  20.5415 -19.416 -3.3222
LeftHand  -0.00508813 6.87689 2.30023
RightShoulder  -0.604919 -5.34713 26.0863
RightArm  0.711254 -10.2492 23.7225
RightForeArm  6.51394 9.9791 1.1039
RightHand  -0.09193 3.17348 -1.48265
LeftUpLeg  0.478012 4.72112 -2.87701
LeftLeg  5.84475 0.588812 -0.50675
LeftFoot  -4.59179 -0.169251 3.34053
LeftToes  9.86798e-010 -1.28139e-010 1.4132e-011
571
root  86.613 39.1669 -0.381454 -55.1434 -86.2654 53.8098
RightUpLeg  -0.910435 -9.59036 -6.10103
RightLeg  10.8309 -1.67217 -0.222261
RightFoot  -7.9896 -0.0544279 0.015743
RightToes  -4.65661e-009 0 -3.6325e-017
Spine  6.50693 0.344253 3.53908
Spine1  -2.94615 1.42676 -6.62693
HEad  -6.21665 -5.51723 -8.52523
LeftShoulder1  -0.32005 4.46895 -26.9507
LeftArm  -15.9091 14.5331 -25.0337
LeftForeArm  22.0287 -20.187 -3.23129
LeftHand  -0.0239873 5.93109 1.4261
RightShoulder  -0.568425 -5.2435 25.9161
RightArm  0.454049 -10.0514 25.0201
RightForeArm  7.56313 10.4174 1.12352
RightHand  -0.0943485 2.5843 -1.57397
LeftUpLeg  0.782014 5.04432 -2.35809
LeftLeg  5.25957 1.37667 -0.501297
LeftFoot  -4.30384 -0.164608 3.09774
LeftToes  9.86798e-010 -1.28139e-010 1.4132e-011
572
root  86.6253 39.2074 -0.489643 -61.5963 -86.8009 60.1839
RightUpLeg  -0.44153 -8.86756 -5.50565
RightLeg  9.70639 -2.03706 -0.308414
RightFoot  -7.37805 -0.0301033 -0.578881
RightToes  -4.65661e-009 0 -3.6325e-017
Spine  6.1364 0.508501 3.6466
Spine1  -2.2344 1.55307 -6.04987
HEad  -5.78901 -4.8165 -8.36267
LeftShoulder1  -0.332572 4.50511 -27.0055
LeftArm  -15.644 14.2031 -26.0261
LeftForeArm  22.4631 -20.6007 -3.31046
LeftHand  -0.0289556 5.21207 0.577161
RightShoulder  -0.624297 -5.3958 26.2758
RightArm  0.108012 -9.64235 26.4773
RightForeArm  8.41251 10.824 1.14924
RightHand  -0.134555 3.04109 -2.08514
LeftUpLeg  1.16756 5.09102 -2.00606
LeftLeg  4.65743 1.95061 -0.316384
LeftFoot  -4.10713 -0.157732 2.88839
LeftToes  9.86798e-010 -1.28139e-010 1.4132e-011
573
root  86.6413 39.2379 -0.584177 -63.2875 -86.8284 61.8524
RightUpLeg  -0.0465058 -9.28386 -5.56825
RightLeg  8.93116 -1.44596 0.0880694
RightFoot  -7.06739 -0.0133744 -0.927664
RightToes  -4.65661e-009 0 -3.6325e-017
Spine  6.1331 0.422672 3.85722
Spine1  -2.22071 1.47547 -5.98517
HEad  -5.43811 -4.48513 -8.34306
LeftShoulder1  -0.312348 4.4455 -26.9604
LeftArm  -14.3486 13.543 -26.8775
LeftForeArm  23.6112 -20.1517 -3.28271
LeftHand  -0.0237648 4.44332 -0.00143486
RightShoulder  -0.663927 -5.4921 26.7052
RightArm  0.285801 -9.92535 27.7901
RightForeArm  8.39446 11.3983 1.33918
RightHand  -0.123381 3.1524 -1.90675
LeftUpLeg  1.44284 4.98816 -1.93821
LeftLeg  4.08749 2.0646 -0.191457
LeftFoot  -3.81944 -0.144069 2.53749
LeftToes  9.86798e-010 -1.28139e-010 1.4132e-011
